<?xml version="1.0" standalone="no"?>
<!DOCTYPE svg PUBLIC "-//W3C//DTD SVG 20010904//EN"
 "http://www.w3.org/TR/2001/REC-SVG-20010904/DTD/svg10.dtd">
<svg version="1.0" xmlns="http://www.w3.org/2000/svg"
 width="1536.000000pt" height="1536.000000pt" viewBox="0 0 1536.000000 1536.000000"
 preserveAspectRatio="xMidYMid meet">
<metadata>
Created by potrace 1.16, written by Peter Selinger 2001-2019
</metadata>
<g transform="translate(0.000000,1536.000000) scale(0.100000,-0.100000)"
fill="#000000" stroke="none">
<path d="M0 7680 l0 -7680 7680 0 7680 0 0 7680 0 7680 -7680 0 -7680 0 0
-7680z m3450 1591 c0 -5 -7 -14 -15 -21 -20 -17 -19 -25 8 -39 14 -8 15 -10 3
-6 -11 3 -24 -2 -32 -12 -8 -11 -13 -13 -14 -5 0 13 -40 17 -40 4 0 -7 63 -42
75 -42 3 0 5 7 5 15 0 8 5 15 10 15 6 0 10 -5 10 -11 0 -7 18 -9 53 -5 28 3
75 7 103 9 28 2 56 7 61 10 6 4 24 1 41 -5 26 -10 34 -9 50 5 15 14 42 23 76
26 4 1 6 8 2 16 -4 12 3 15 34 15 33 0 40 3 40 19 0 16 7 20 41 19 27 0 37 -3
28 -9 -10 -6 -11 -9 -1 -9 6 0 12 -7 12 -15 0 -11 11 -15 40 -15 29 0 40 -4
40 -15 0 -17 27 -20 32 -4 3 8 55 12 153 15 83 1 166 3 185 4 125 3 314 -7
318 -18 4 -13 32 -17 32 -4 0 12 73 33 80 23 4 -6 195 -11 405 -11 145 1 190
-2 206 -14 10 -7 16 -16 12 -19 -3 -4 5 -7 20 -7 14 0 32 6 40 14 24 24 67 25
67 1 0 -8 5 -15 10 -15 6 0 10 6 8 14 -3 15 51 71 60 62 10 -11 -21 -87 -40
-97 -9 -5 -29 -7 -43 -3 -15 4 -25 2 -25 -5 0 -6 -5 -11 -11 -11 -6 0 -17 -7
-25 -15 -14 -13 -14 -15 0 -15 9 0 25 9 37 21 27 27 44 13 30 -25 -12 -30 -39
-45 -51 -26 -5 9 -9 9 -14 1 -4 -6 -12 -8 -18 -5 -7 4 -8 2 -4 -4 4 -7 14 -12
22 -12 25 0 15 -30 -25 -73 l-40 -42 -593 -2 c-326 -1 -703 -2 -837 -3 -161
-1 -247 2 -254 9 -6 6 -18 11 -26 11 -13 0 -13 -2 -3 -9 11 -6 7 -13 -14 -30
-14 -11 -32 -21 -39 -21 -6 0 -20 -9 -30 -20 -10 -11 -24 -20 -32 -20 -7 0
-13 -7 -13 -15 0 -7 -6 -18 -13 -22 -8 -4 -22 -20 -31 -34 -15 -24 -17 -64
-15 -395 1 -203 1 -448 -1 -545 -2 -168 -1 -177 22 -217 13 -24 41 -60 61 -81
75 -77 9 -72 955 -74 788 -2 849 -3 879 -20 30 -16 143 -170 143 -194 0 -6 9
-18 20 -28 11 -10 20 -22 20 -26 0 -11 56 -94 97 -145 66 -82 156 -76 -959
-69 -1052 7 -1065 7 -1193 55 -106 39 -235 126 -317 213 -38 39 -68 75 -68 80
0 5 -8 21 -19 35 -10 15 -22 38 -26 52 -4 13 -13 30 -21 37 -7 7 -23 39 -36
70 l-23 58 1 595 c1 405 5 609 13 638 6 23 16 61 21 84 17 67 69 127 70 81 1
-16 2 -16 12 1 8 14 8 24 0 37 -10 16 -7 19 23 25 19 3 35 11 35 16 0 6 -6 8
-14 5 -8 -3 -17 0 -20 8 -2 7 2 16 10 19 8 3 14 16 14 28 0 13 18 42 42 68 58
62 108 95 108 71z m3753 -63 c2 -7 -4 -29 -15 -48 -12 -24 -16 -45 -12 -67 4
-21 2 -33 -5 -33 -6 0 -11 6 -11 14 0 17 -16 30 -23 19 -3 -5 3 -19 14 -31 17
-21 20 -22 34 -9 8 9 15 24 15 34 0 10 3 28 6 41 6 19 11 22 33 17 14 -4 29
-12 33 -18 5 -8 8 -4 8 9 0 16 6 21 29 21 20 0 27 -5 24 -13 -3 -7 7 -25 21
-40 21 -23 27 -25 40 -15 23 19 20 31 -9 31 -16 0 -25 6 -25 15 0 11 12 15 45
15 36 0 51 5 69 25 26 28 46 32 46 10 0 -11 11 -15 39 -15 36 0 40 -3 43 -27
2 -17 8 -27 16 -25 8 1 11 -2 7 -8 -3 -5 -1 -10 4 -10 6 0 11 5 11 10 0 6 9
10 20 10 13 0 20 7 20 20 0 16 7 20 36 20 23 0 42 7 52 19 10 10 35 21 57 24
22 3 34 3 28 0 -16 -6 -17 -43 -3 -43 6 0 24 7 40 15 23 12 29 12 33 1 8 -21
69 -29 80 -11 11 20 26 10 20 -14 -3 -10 0 -22 6 -25 7 -4 11 1 11 14 0 17 4
20 20 15 16 -5 20 -2 20 18 0 14 7 27 15 31 10 3 15 -1 15 -13 0 -10 7 -24 15
-31 8 -7 15 -19 15 -26 0 -20 -27 -17 -39 4 -6 9 -11 11 -11 5 0 -17 36 -53
53 -53 17 0 57 -61 57 -87 0 -16 5 -20 18 -16 14 3 18 11 14 29 -2 14 0 24 7
24 6 0 11 -7 11 -17 0 -9 11 -31 25 -49 14 -18 25 -38 25 -44 0 -6 9 -20 19
-31 11 -12 22 -32 26 -46 3 -13 17 -42 30 -64 14 -21 25 -49 25 -62 0 -13 7
-32 15 -43 8 -10 15 -27 15 -37 0 -10 4 -16 9 -13 10 6 51 -66 51 -88 0 -8 10
-21 23 -29 12 -8 36 -41 52 -73 17 -33 33 -61 37 -64 3 -3 10 -18 13 -33 4
-15 11 -27 15 -27 4 0 10 -8 13 -17 17 -52 47 -126 55 -137 6 -6 29 -49 53
-96 23 -47 57 -107 74 -135 18 -27 62 -113 99 -190 122 -252 131 -269 162
-320 17 -27 59 -105 92 -173 34 -68 71 -136 82 -153 11 -16 29 -43 41 -60 11
-17 19 -36 16 -42 -3 -9 -71 -12 -257 -11 -218 2 -254 4 -262 17 -4 9 -15 23
-23 31 -8 8 -15 20 -15 27 0 6 -28 66 -62 133 -34 66 -86 171 -115 231 -29 61
-58 117 -63 125 -6 8 -20 34 -31 57 -11 24 -30 48 -42 55 -24 14 -770 29
-1089 23 -102 -2 -178 0 -178 5 0 12 138 239 167 275 5 6 31 45 58 87 35 53
58 79 75 83 14 3 171 3 350 0 179 -2 331 -1 339 4 9 6 11 18 7 36 -7 26 -87
213 -106 247 -6 10 -10 27 -10 37 0 11 -5 23 -10 26 -6 3 -19 25 -30 48 -12
23 -29 56 -40 72 -11 17 -24 41 -30 55 -6 14 -15 34 -20 45 -5 11 -16 43 -24
72 -16 57 -59 123 -122 189 -23 24 -44 47 -45 52 -2 6 -20 12 -39 15 -19 3
-39 6 -45 7 -31 7 -75 -3 -97 -22 -22 -20 -98 -140 -98 -155 0 -3 -18 -44 -41
-91 -23 -48 -50 -107 -62 -132 -11 -25 -23 -47 -27 -50 -7 -6 -189 -364 -258
-510 -12 -25 -26 -52 -30 -60 -5 -8 -18 -33 -28 -55 -11 -22 -32 -62 -47 -90
-41 -76 -177 -365 -177 -376 0 -5 -4 -9 -8 -9 -4 0 -18 -19 -30 -42 -12 -24
-26 -50 -30 -58 -11 -18 -38 -76 -88 -185 -65 -144 -104 -203 -138 -211 -47
-11 -480 -6 -484 5 -2 5 19 51 46 102 85 163 90 172 142 280 27 59 59 118 71
133 25 32 79 136 79 154 0 6 5 12 10 12 6 0 10 8 10 18 0 21 119 258 152 304
25 33 124 234 148 298 7 19 19 42 25 50 7 8 19 29 27 45 23 45 40 75 73 125
16 25 41 68 55 95 14 28 31 59 37 70 39 74 73 146 73 155 0 6 21 44 47 83 26
40 53 85 61 101 7 16 21 36 32 43 11 8 18 19 14 24 -3 5 1 21 10 34 9 13 16
29 16 35 0 18 32 60 45 60 7 0 15 -6 18 -12z m4637 -31 c-4 -21 -4 -39 1 -43
5 -3 9 0 9 7 0 7 8 6 24 -4 22 -15 25 -15 37 -1 11 14 14 13 21 -7 6 -15 5
-25 -1 -27 -6 -2 -11 -22 -11 -45 l1 -42 14 30 c7 17 14 23 15 15 1 -9 5 -6
10 8 11 26 28 29 37 5 4 -10 12 -22 19 -28 6 -5 15 -28 19 -50 11 -55 9 -433
-2 -448 -5 -7 -10 -21 -11 -32 -1 -29 -57 -142 -97 -199 -36 -50 -99 -106
-119 -106 -7 0 -21 -9 -33 -19 -55 -51 -191 -91 -312 -91 -60 0 -156 -23 -166
-41 -12 -19 -19 -11 750 -801 137 -142 251 -261 253 -266 1 -5 -136 -7 -315
-6 -317 3 -318 3 -341 26 -13 13 -54 52 -90 88 -36 36 -201 199 -366 362 -166
164 -305 302 -311 307 -5 6 -55 55 -110 110 -55 54 -203 201 -330 325 -185
181 -230 231 -231 253 0 15 -6 28 -12 28 -19 0 -25 14 -12 30 8 10 17 12 24 6
7 -6 233 -9 596 -6 509 3 589 5 615 19 17 9 35 16 41 16 9 0 34 18 102 75 22
19 24 28 27 128 3 131 0 147 -32 171 -21 15 -50 19 -196 23 -282 8 -1217 9
-1217 1 0 -5 -32 -8 -71 -8 -73 0 -136 20 -146 47 -3 7 -15 13 -26 13 -20 0
-20 0 -1 15 17 13 17 14 2 15 -10 0 -18 6 -18 14 0 8 -9 18 -20 21 -11 3 -20
11 -20 16 0 13 37 11 46 -2 9 -16 34 30 26 50 -4 9 -1 12 7 7 7 -5 10 -14 7
-22 -3 -8 -1 -14 4 -14 6 0 10 -13 10 -30 0 -45 28 -39 35 8 9 54 13 60 20 35
9 -27 18 -29 35 -8 9 11 17 12 23 6 6 -6 17 -7 26 -2 9 5 32 8 53 7 20 0 34 2
31 7 -2 4 -21 7 -41 7 l-37 1 29 16 c19 10 43 13 69 10 52 -7 73 -27 29 -27
-63 0 -30 -15 36 -17 46 0 56 1 32 6 -39 7 -56 41 -20 41 11 0 20 -4 20 -8 0
-12 194 -3 198 8 2 6 57 10 125 9 80 0 115 -3 102 -9 -14 -7 -9 -8 20 -4 22 2
119 7 215 9 204 6 174 5 324 4 99 -1 122 2 131 15 9 12 29 16 74 16 39 0 60
-4 56 -10 -8 -13 31 -13 56 0 13 8 19 7 19 0 0 -7 20 -10 53 -9 28 1 69 -1 89
-5 30 -7 39 -5 44 8 3 9 17 16 30 16 13 0 24 5 24 12 0 6 2 9 4 7 3 -3 1 -21
-4 -42z m-2123 -632 c15 -13 33 -29 38 -35 6 -6 21 -21 35 -33 25 -22 33 -31
191 -193 l88 -91 -2 -596 c-1 -327 -5 -598 -8 -601 -11 -11 -448 -11 -459 0
-7 7 -11 236 -11 745 -1 811 -1 805 7 797 3 -4 14 2 25 13 26 26 62 24 96 -6z
m-6607 -1870 c157 -85 249 -251 250 -448 0 -79 -5 -113 -25 -174 -43 -126 -97
-194 -215 -268 l-45 -28 -258 1 c-229 1 -262 3 -278 18 -18 16 -19 39 -19 460
0 394 2 444 16 459 14 14 47 15 268 13 l251 -3 55 -30z m4698 25 c60 0 123
-84 180 -240 22 -61 88 -220 120 -290 36 -80 62 -142 62 -151 0 -4 15 -40 34
-81 53 -115 62 -146 50 -166 -10 -15 -42 -17 -355 -17 -338 0 -344 0 -343 20
3 35 47 169 61 185 11 12 46 15 173 16 88 0 163 4 166 7 4 3 -3 21 -14 39 -11
18 -34 67 -51 108 -18 41 -50 116 -71 165 -21 50 -42 104 -45 121 -8 39 -36
67 -59 58 -19 -7 -39 -49 -123 -254 -30 -74 -73 -175 -95 -224 -22 -48 -46
-110 -54 -137 -8 -26 -26 -62 -40 -79 -23 -26 -32 -30 -79 -30 -99 0 -127 26
-104 98 25 79 274 675 322 772 32 64 33 65 87 77 30 7 75 10 99 8 24 -3 60 -5
79 -5z m664 -40 c3 -25 7 -167 7 -315 1 -296 -3 -271 63 -349 l26 -31 264 -2
c279 -2 297 -5 318 -51 18 -40 24 -116 11 -140 -12 -22 -14 -22 -322 -22 -307
0 -310 0 -357 24 -61 31 -124 99 -155 167 -30 67 -35 125 -43 472 l-5 268 33
14 c20 9 57 14 93 12 l60 -2 7 -45z m-4148 32 c11 -18 -10 -172 -26 -188 -13
-14 -50 -16 -269 -15 -225 1 -258 -1 -288 -16 -44 -23 -70 -59 -73 -103 l-3
-35 315 -5 315 -5 1 -95 c1 -59 -3 -98 -10 -102 -6 -4 -141 -8 -301 -8 -159 0
-296 -4 -304 -9 -28 -18 33 -128 81 -144 10 -3 131 -7 270 -7 157 -1 258 -6
266 -12 14 -12 17 -165 3 -187 -8 -12 -58 -14 -288 -12 -153 1 -294 6 -313 11
-46 13 -127 75 -162 125 -54 77 -63 130 -63 350 0 190 1 203 24 255 46 103
100 153 205 190 44 16 87 19 333 19 155 1 284 -2 287 -7z m883 -2 c50 -12 110
-48 118 -72 11 -31 23 -20 32 30 l8 47 415 0 415 0 -1 -88 c-1 -59 -7 -95 -17
-110 -15 -23 -19 -24 -144 -22 -70 1 -134 0 -140 -3 -10 -3 -13 -81 -13 -344
0 -215 -4 -346 -10 -359 -9 -16 -22 -19 -80 -19 -105 0 -100 -20 -100 386 l0
341 -61 7 c-34 3 -96 6 -138 6 l-76 0 0 -107 c0 -118 -14 -159 -76 -231 -31
-34 -35 -47 -20 -56 9 -6 67 -108 128 -226 24 -47 32 -72 27 -92 -6 -28 -6
-28 -88 -28 l-83 0 -28 43 c-16 23 -36 54 -47 69 -10 15 -18 29 -18 32 0 2
-21 40 -46 85 l-45 81 -237 -2 -237 -3 -1 -139 c-2 -164 -3 -166 -99 -166
-106 0 -100 -31 -103 482 -2 325 0 443 9 454 9 12 72 14 363 14 193 0 370 -5
393 -10z m1203 0 c12 -7 16 -41 18 -172 2 -90 7 -167 11 -171 10 -10 463 -13
480 -3 8 6 11 53 10 171 0 90 2 169 6 175 3 5 39 10 80 10 65 0 76 -3 89 -22
14 -20 16 -81 16 -465 0 -427 -1 -443 -19 -453 -24 -13 -131 -13 -151 0 -12 7
-16 43 -20 177 l-5 168 -245 0 -245 0 -5 -168 c-6 -191 -3 -187 -91 -187 -101
0 -93 -36 -99 472 -4 372 -3 446 9 461 11 13 29 17 80 17 36 0 73 -5 81 -10z
m3006 -313 c1 -355 -1 -344 74 -394 32 -23 39 -23 319 -23 210 0 290 -3 299
-12 7 -7 12 -41 12 -83 0 -58 -4 -75 -20 -93 -21 -22 -25 -22 -323 -22 -274 0
-306 2 -343 19 -54 25 -117 82 -159 145 -45 69 -53 138 -51 456 1 229 3 259
19 283 24 37 50 47 117 44 l55 -2 1 -318z m1780 292 c15 -14 19 -28 17 -52 -8
-65 -14 -77 -50 -102 l-38 -25 -388 0 -389 0 -29 -29 c-16 -16 -29 -39 -29
-52 0 -30 38 -89 58 -89 9 0 185 -1 391 -3 l373 -2 37 -41 c65 -73 85 -182 59
-320 -14 -79 -64 -150 -128 -181 -44 -22 -54 -22 -423 -23 -220 0 -386 4 -396
9 -13 7 -16 18 -13 42 6 40 111 149 145 150 12 0 135 0 272 -1 224 -1 335 6
352 23 3 3 6 31 7 62 1 40 -3 58 -14 65 -9 6 -157 10 -355 10 -187 0 -357 4
-377 9 -124 29 -210 193 -179 342 17 86 62 148 136 190 33 19 76 36 95 39 19
3 217 4 440 2 385 -3 406 -4 426 -23z m298 9 c14 -20 16 -78 16 -453 l-1 -430
-26 -27 c-36 -38 -104 -40 -135 -5 -21 23 -21 31 -20 458 l1 434 26 23 c37 31
117 31 139 0z m1035 -8 c105 -54 160 -159 161 -306 0 -95 -24 -158 -83 -221
-86 -91 -67 -87 -442 -93 l-330 -5 0 -131 c0 -163 -3 -168 -93 -162 -76 5 -88
16 -97 92 -3 28 -5 226 -3 441 3 382 3 390 24 400 13 6 161 9 424 7 368 -3
407 -5 439 -22z"/>
<path d="M2715 6477 c-3 -7 -4 -125 -3 -262 l3 -250 144 -3 c139 -2 145 -2
182 22 44 29 91 94 109 150 17 54 6 174 -21 229 -28 55 -66 95 -108 113 -45
19 -299 20 -306 1z"/>
<path d="M4638 6482 c-15 -18 -3 -183 14 -194 7 -4 113 -8 236 -8 236 0 268 5
292 49 25 49 6 122 -40 146 -41 21 -485 28 -502 7z"/>
<path d="M11850 6492 c-6 -2 -10 -51 -10 -118 l0 -113 297 4 c284 5 298 6 319
26 28 26 38 78 24 126 -19 70 -23 71 -338 75 -155 1 -287 2 -292 0z"/>
</g>
</svg>
